<?xml version="1.0" encoding="utf-8"?>
<!-- Generator: Adobe Illustrator 25.0.0, SVG Export Plug-In . SVG Version: 6.00 Build 0)  -->
<svg version="1.1" id="Layer_1" xmlns="http://www.w3.org/2000/svg" xmlns:xlink="http://www.w3.org/1999/xlink" x="0px" y="0px"
	 viewBox="0 0 932.5 1030.8" style="enable-background:new 0 0 932.5 1030.8;" xml:space="preserve">
<style type="text/css">
	.st0{fill:#165927;}
	.st1{display:none;fill:none;stroke:#000000;stroke-width:90;stroke-miterlimit:10;}
</style>
<path class="st0" d="M856.5,70.5c-13.7-13.7-36-13.7-49.7,0c-7.8,7.8-11.1,18.2-10.1,28.3c-16.1,25.7-27,40.3-34,49.3
	c2.2-11.7,5.8-29.6,13-57.3c8.6-6.4,14.1-16.7,14.1-28.2c0-19.4-15.7-35.2-35.2-35.2s-35.2,15.7-35.2,35.2c0,10.9,5,20.7,12.9,27.2
	c6.5,28.7,9.3,46.5,10.7,57.9c-6.7-9.8-16.7-24.9-30.9-49.2c1.5-10.6-1.8-21.8-9.9-29.9c-13.7-13.7-36-13.7-49.7,0
	c-13.7,13.7-13.7,36,0,49.7c7.8,7.8,18.2,11.1,28.3,10.1c34.5,21.7,53.3,39.9,74.6,59.3c21.3-22.7,35.4-36.7,71.1-57.6
	c10.6,1.5,21.8-1.8,29.9-9.9C870.2,106.5,870.2,84.3,856.5,70.5z"/>
<path class="st1" d="M452,612.3l-136.6,236c0,0-15.9,23.6-13.1,33.9c2.9,10.5,29.6,24.5,29.6,24.5l120.8,68.6l117.7-68
	c0,0,26.6-14.7,29.5-25.6c2.9-10.7-12.8-35.3-12.8-35.3l-31.3-54.3"/>
<g>
	<path class="st0" d="M451.4,519.4l-50.9-89.3l149.7-258.6l-96.8-55l-71.3,42l0,0c29.8,51.5-46.9,98.8-46.9,98.8l-31-53.6
		c-1.6-2.6-5.7-9.4-9.5-17.5c-6.1-12.9-13.6-32.3-8.1-52.6c5.4-20,21.4-33.4,33-41.8c8.1-5.8,15.6-10.2,17.7-11.3L453,12.8l142.7,81
		c2.5,1.3,9.7,5.3,17.4,10.6c11.9,8.2,28.4,21.3,33.9,41.6c5.6,20.6-2.3,40-8.7,52.8c-3.7,7.4-7.6,13.7-9.5,16.5L451.4,519.4z
		 M566.5,182L566.5,182L566.5,182z M343.6,181.5L343.6,181.5L343.6,181.5z"/>
</g>
<g>
	<path class="st0" d="M450.4,521.4l-102.8-0.6L198.5,261.9l-96,56.4l0.7,82.8l0,0c59.5,0,62.1,90,62.1,90h-61.9
		c-3,0.1-11,0.2-19.9-0.5c-14.2-1.1-34.8-4.4-49.7-19.3c-14.6-14.6-18.2-35.3-19.6-49.5c-1-9.9-1-18.6-0.9-21l-0.7-134.1l141.5-83.1
		c2.4-1.5,9.5-5.8,17.9-9.8c13-6.3,32.7-13.9,52.9-8.6c20.7,5.5,33.5,22,41.4,33.9c4.6,7,8,13.4,9.6,16.5L450.4,521.4z M215.7,253
		L215.7,253L215.7,253z M103.8,445.7L103.8,445.7L103.8,445.7z"/>
</g>
<g>
	<path class="st0" d="M450.4,522.4l-51.9,88.7l-298.8-0.3l0.8,111.3l72.1,40.8l0,0c29.7-51.5,109-8.8,109-8.8l-30.9,53.6
		c-1.4,2.7-5.3,9.6-10.4,17c-8.1,11.7-21.2,27.9-41.5,33.4c-20,5.4-39.6-1.8-52.7-7.7c-9.1-4.1-16.6-8.5-18.6-9.7L10.8,774.3
		L9.7,610.3c-0.1-2.8-0.3-11.1,0.5-20.4c1.1-14.4,4.3-35.3,19-50.1c15.1-15.2,35.8-18,50.1-18.9c8.3-0.5,15.6-0.2,19-0.1
		L450.4,522.4z M100.5,591.4L100.5,591.4L100.5,591.4z M211.6,784.7L211.6,784.7L211.6,784.7z"/>
</g>
<g>
	<path class="st0" d="M452.4,521.4l50.9,89.3L353.6,869.3l96.8,55l71.3-42l0,0c-29.8-51.5,46.9-98.8,46.9-98.8l31,53.6
		c1.6,2.6,5.7,9.4,9.5,17.5c6.1,12.8,13.6,32.3,8.1,52.6c-5.3,20-21.4,33.4-33,41.8c-8.1,5.8-15.7,10.2-17.7,11.3L450.8,1028
		l-142.7-81c-2.5-1.3-9.7-5.3-17.4-10.6c-11.9-8.2-28.4-21.3-33.9-41.6c-5.6-20.7,2.3-40,8.7-52.8c3.7-7.5,7.6-13.7,9.5-16.5
		L452.4,521.4z M337.2,858.9L337.2,858.9L337.2,858.9z M560.1,859.4L560.1,859.4L560.1,859.4z"/>
</g>
<circle class="st0" cx="744.5" cy="390.5" r="24.2"/>
<g>
	<polygon class="st0" points="668.8,910.2 545,683.9 648.9,686.3 702.7,784.7 771.7,743.2 559.5,345.6 792,203.1 925,441 
		814.5,426.7 758.5,329.2 678.8,378.1 891.3,776.3 	"/>
</g>
<polyline class="st1" points="584.5,662.3 685.8,847.5 831.5,759.8 619.1,361.8 775.3,266.1 893.5,481.6 "/>
</svg>
